<?xml version="1.0" standalone="no"?>
<!DOCTYPE svg PUBLIC "-//W3C//DTD SVG 20010904//EN"
 "http://www.w3.org/TR/2001/REC-SVG-20010904/DTD/svg10.dtd">
<svg version="1.0" xmlns="http://www.w3.org/2000/svg"
 width="423.000000pt" height="139.000000pt" viewBox="0 0 423.000000 139.000000"
 preserveAspectRatio="xMidYMid meet">
<metadata>
Created by potrace 1.16, written by Peter Selinger 2001-2019
</metadata>
<g transform="translate(0.000000,139.000000) scale(0.100000,-0.100000)"
fill="#000000" stroke="none">
<path d="M431 1354 c-134 -36 -288 -159 -349 -280 -94 -187 -88 -398 16 -559
118 -183 330 -287 526 -258 238 34 446 257 464 496 l5 68 30 -3 c23 -2 33 -9
38 -28 10 -36 10 -647 0 -699 -10 -48 -23 -61 -63 -61 -16 0 -28 -4 -28 -10 0
-6 60 -10 160 -10 100 0 160 4 160 10 0 6 -20 10 -45 10 l-45 0 0 134 0 133
41 -20 c25 -12 69 -22 113 -25 207 -12 356 164 325 386 -12 83 -29 122 -78
175 -61 66 -124 90 -225 85 -71 -4 -103 -12 -168 -46 -5 -2 -8 7 -8 21 0 31
-24 41 -53 22 -23 -15 -82 -37 -129 -49 -25 -6 -28 -4 -28 20 0 45 -30 147
-63 209 -43 84 -164 201 -247 242 -112 54 -238 67 -349 37z m120 -72 c86 -23
164 -71 259 -159 87 -82 149 -170 181 -258 32 -87 32 -227 -1 -310 -29 -75
-108 -156 -187 -193 -50 -23 -71 -27 -154 -27 -92 0 -98 1 -180 42 -143 72
-256 182 -324 315 -88 176 -69 369 47 487 54 54 108 86 178 105 71 19 101 19
181 -2z m1063 -432 c41 -15 84 -60 101 -104 35 -90 -21 -214 -147 -332 -92
-85 -173 -117 -245 -98 -23 6 -23 7 -23 203 l0 197 41 42 c95 100 179 128 273
92z"/>
<path d="M1900 1255 c-14 -8 -50 -22 -80 -31 -85 -24 -89 -27 -40 -33 40 -5
46 -9 51 -36 10 -45 9 -754 0 -804 -10 -48 -23 -61 -63 -61 -16 0 -28 -4 -28
-10 0 -6 60 -10 160 -10 100 0 160 4 160 10 0 6 -20 10 -45 10 l-45 0 0 239 0
239 46 41 c53 46 99 59 153 42 85 -25 100 -71 101 -318 0 -211 -6 -243 -45
-243 -14 0 -25 -4 -25 -10 0 -6 52 -10 136 -10 87 0 133 4 129 10 -3 6 -17 10
-30 10 -12 0 -26 7 -29 16 -3 9 -6 106 -6 217 0 111 -5 219 -11 240 -24 87
-103 140 -209 140 -74 0 -124 -21 -177 -73 l-33 -32 0 236 0 236 -22 0 c-13
-1 -34 -7 -48 -15z"/>
<path d="M3150 1244 c-30 -13 -72 -27 -92 -30 -48 -8 -49 -24 -3 -24 24 0 37
-6 45 -19 6 -12 10 -122 10 -287 l0 -268 -35 -71 c-38 -77 -96 -144 -148 -172
-22 -12 -55 -18 -107 -17 -91 0 -159 26 -216 85 -32 32 -37 43 -28 57 20 31
69 52 182 77 176 38 231 76 240 163 4 46 2 52 -32 90 -48 53 -105 72 -215 72
-74 0 -95 -4 -146 -28 -111 -53 -166 -140 -173 -272 -5 -117 19 -184 97 -260
70 -70 140 -95 237 -87 126 10 230 89 307 233 l36 69 1 -105 c0 -129 -10 -154
-63 -158 -20 -2 -37 -7 -37 -13 0 -5 118 -9 295 -9 190 0 295 4 295 10 0 6
-20 10 -45 10 l-45 0 0 300 c0 332 1 327 -61 291 -19 -10 -62 -27 -96 -36 -69
-19 -84 -37 -28 -33 19 1 38 -1 42 -6 4 -4 9 -110 11 -234 3 -275 3 -276 -81
-280 l-57 -3 0 491 c0 557 10 507 -90 464z m-387 -375 c79 -22 122 -91 106
-167 -13 -64 -43 -82 -201 -126 -31 -9 -70 -28 -87 -42 l-30 -25 -17 57 c-32
112 -2 237 68 279 59 34 101 41 161 24z"/>
<path d="M3534 1211 c-35 -15 -82 -81 -104 -145 -31 -94 -23 -114 21 -52 37
52 95 94 155 113 30 9 54 20 54 24 0 4 -10 19 -22 33 -25 29 -72 40 -104 27z"/>
<path d="M3710 887 c-53 -26 -72 -116 -34 -157 12 -12 18 -10 46 16 83 78 165
111 230 94 l38 -11 0 -78 c0 -62 -4 -81 -18 -94 -30 -27 -84 -45 -182 -61 -51
-8 -113 -25 -138 -38 -80 -41 -104 -130 -59 -218 32 -64 73 -85 169 -85 69 0
80 3 119 30 24 17 58 50 76 74 l33 43 0 -66 0 -66 115 0 c70 0 115 4 115 10 0
6 -18 10 -40 10 -29 0 -42 5 -50 19 -6 11 -10 90 -10 184 0 204 -10 238 -89
318 -38 38 -72 61 -105 72 -58 20 -180 22 -216 4z m253 -469 c-40 -43 -95 -68
-147 -68 -82 0 -148 88 -118 155 14 31 68 58 158 79 39 10 84 25 100 35 l29
18 3 -95 c3 -92 2 -96 -25 -124z"/>
</g>
</svg>
